<svg width="120" height="35" viewBox="0 0 120 35" fill="none" xmlns="http://www.w3.org/2000/svg">
<g style="mix-blend-mode:luminosity" opacity="0.5">
<path d="M31.7605 17.328C31.7605 24.6841 25.7747 30.656 18.3803 30.656C10.9858 30.656 5 24.6841 5 17.328C5 9.97187 10.9858 4 18.3803 4C25.7747 4 31.7605 9.97187 31.7605 17.328Z" stroke="#6927DA" stroke-width="3"/>
<path d="M23.5589 22.488C20.8172 25.2199 17.7255 26.988 14.9992 27.6865C12.2371 28.3943 10.1291 27.9578 8.92103 26.754C7.713 25.5503 7.27492 23.4497 7.98517 20.6974C8.68624 17.9808 10.4606 14.8998 13.2022 12.1679C15.9437 9.43601 19.0356 7.66789 21.7619 6.96932C24.524 6.26158 26.632 6.69808 27.84 7.90185C29.048 9.10563 29.4861 11.2062 28.7758 13.9585C28.0747 16.6751 26.3005 19.756 23.5589 22.488Z" stroke="#6927DA" stroke-width="3"/>
<path d="M23.5588 12.1679C26.3004 14.8998 28.0747 17.9807 28.7758 20.6974C29.4861 23.4496 29.048 25.5503 27.8399 26.7541C26.6319 27.9578 24.5239 28.3943 21.7619 27.6865C19.0355 26.988 15.9437 25.2199 13.2021 22.4879C10.4606 19.7561 8.68624 16.6752 7.98517 13.9585C7.27493 11.2062 7.713 9.10556 8.92094 7.90188C10.129 6.69809 12.237 6.26158 14.9991 6.96932C17.7254 7.66789 20.8172 9.43594 23.5588 12.1679Z" stroke="#6927DA" stroke-width="3"/>
<path d="M45.8608 24.0249C49.0294 24.0249 51.1686 22.3759 51.1686 19.7414C51.1686 14.1709 43.7417 16.5439 43.7417 13.6078C43.7417 12.7832 44.4885 12.2202 45.6792 12.2202C47.0314 12.2202 47.879 12.9441 47.9799 14.0502H50.8659C50.7852 11.3755 48.7266 9.62598 45.6792 9.62598C42.8134 9.62598 40.7952 11.275 40.7952 13.6078C40.7952 19.1381 48.1211 17.0266 48.1211 19.7816C48.1211 20.8475 47.213 21.4106 45.8608 21.4106C44.3674 21.4106 43.4188 20.5056 43.2978 19.0778H40.3916C40.5127 22.0742 42.652 24.0249 45.8608 24.0249Z" fill="black"/>
<path d="M51.8545 27.9666H54.6597V22.9591C55.2046 23.6428 56.1935 24.025 57.3439 24.025C60.2702 24.025 62.248 21.9536 62.248 18.7963C62.248 15.6389 60.4316 13.5676 57.5861 13.5676C56.2742 13.5676 55.2652 14.0503 54.6597 14.8345V13.7285H51.8545V27.9666ZM57.0007 21.6117C55.4871 21.6117 54.4983 20.4856 54.4983 18.7963C54.4983 17.0869 55.4871 15.9607 57.0007 15.9607C58.474 15.9607 59.4831 17.0869 59.4831 18.7963C59.4831 20.4856 58.474 21.6117 57.0007 21.6117Z" fill="black"/>
<path d="M62.9268 23.864H65.7321V18.3136C65.7321 17.0064 66.5998 16.0612 67.8309 16.0612C69.0015 16.0612 69.8087 16.9461 69.8087 18.1727V23.864H72.614V17.5494C72.614 15.2166 71.1205 13.5675 68.84 13.5675C67.4273 13.5675 66.3173 14.1507 65.7321 15.1361V9.32422H62.9268V23.864Z" fill="black"/>
<path d="M80.4617 20.4252C80.2396 21.29 79.493 21.7324 78.3628 21.7324C76.9501 21.7324 76.0419 20.8476 75.8401 19.4197H83.1458C83.166 19.1985 83.1862 18.8968 83.1862 18.5148C83.1862 16.202 81.7533 13.5676 78.1609 13.5676C74.7099 13.5676 73.1357 16.202 73.1357 18.7761C73.1357 21.3302 74.9117 24.025 78.3628 24.025C80.8653 24.025 82.8027 22.6173 83.2063 20.4252H80.4617ZM78.1609 15.6189C79.5131 15.6189 80.3002 16.5238 80.3809 17.65H75.8804C76.1227 16.2422 76.8895 15.6189 78.1609 15.6189Z" fill="black"/>
<path d="M90.5429 16.0612V13.7284H89.0959C87.8647 13.7284 87.0979 14.1507 86.553 15.4177V13.7284H83.7275V23.864H86.553V18.9369C86.553 17.2074 87.1787 16.0612 88.5707 16.0612H90.5429Z" fill="black"/>
<path d="M100.231 13.7284H97.4051V19.2788C97.4051 20.5659 96.5373 21.5312 95.306 21.5312C94.1562 21.5312 93.349 20.6463 93.349 19.4196V13.7284H90.543V20.043C90.543 22.3557 92.0363 24.0249 94.3171 24.0249C95.7101 24.0249 96.8401 23.4216 97.4051 22.4563V23.864H100.231V13.7284Z" fill="black"/>
<path d="M101.441 23.864H104.246V9.32422H101.441V23.864Z" fill="black"/>
<path d="M112.256 20.4252C112.033 21.29 111.286 21.7324 110.156 21.7324C108.744 21.7324 107.836 20.8476 107.634 19.4197H114.939C114.96 19.1985 114.98 18.8968 114.98 18.5148C114.98 16.202 113.547 13.5676 109.955 13.5676C106.503 13.5676 104.93 16.202 104.93 18.7761C104.93 21.3302 106.706 24.025 110.156 24.025C112.66 24.025 114.597 22.6173 115 20.4252H112.256ZM109.955 15.6189C111.307 15.6189 112.094 16.5238 112.175 17.65H107.674C107.916 16.2422 108.683 15.6189 109.955 15.6189Z" fill="black"/>
</g>
</svg>
