<svg width="120" height="35" viewBox="0 0 120 35" fill="none" xmlns="http://www.w3.org/2000/svg">
<g style="mix-blend-mode:luminosity" opacity="0.5">
<path d="M22.2868 17.0086C20.1585 19.4471 17.0657 20.9818 13.6234 20.9818C10.181 20.9818 7.08821 19.4471 4.95996 17.0086C7.08821 14.5701 10.181 13.0355 13.6234 13.0355C17.0657 13.0355 20.1585 14.5701 22.2868 17.0086Z" fill="black"/>
<path fill-rule="evenodd" clip-rule="evenodd" d="M2 24.9549C2 18.372 7.20379 13.0355 13.623 13.0355C10.1807 13.0355 7.08785 14.5701 4.9596 17.0086C7.08785 19.4471 10.1807 20.9818 13.623 20.9818C17.0654 20.9818 20.1582 19.4471 22.2864 17.0086C24.1268 19.1174 25.2459 21.9021 25.2459 24.9549V29.4577C25.2459 30.0428 24.7834 30.5172 24.2128 30.5172H3.03315C2.46256 30.5172 2 30.0428 2 29.4577V24.9549Z" fill="#7CD4FD"/>
<path fill-rule="evenodd" clip-rule="evenodd" d="M9.26335 20.1149C7.60374 19.4257 6.13465 18.3549 4.9596 17.0086C7.08785 14.5701 10.1807 13.0355 13.623 13.0355C17.0654 13.0355 20.1582 14.5701 22.2864 17.0086C24.1268 14.8998 25.2459 12.1151 25.2459 9.0624V4.5595C25.2459 3.97436 24.7834 3.5 24.2128 3.5H3.03315C2.46256 3.5 2 3.97435 2 4.5595V9.0624C2 14.0642 5.00431 18.3464 9.26335 20.1149Z" fill="#0BA5EC"/>
<path d="M43.4004 11.1488V23.1493H41.0533V18.043H36.0405V23.1493H33.6934V11.1488H36.0405V16.0831H41.0533V11.1488H43.4004Z" fill="black"/>
<path d="M49.835 23.3034C48.9409 23.3034 48.1361 23.1029 47.4209 22.7018C46.7055 22.2891 46.1411 21.7103 45.7275 20.9653C45.3251 20.2203 45.124 19.3606 45.124 18.3863C45.124 17.4121 45.3308 16.5525 45.7443 15.8074C46.169 15.0624 46.7446 14.4894 47.4711 14.0882C48.1977 13.6756 49.0079 13.4692 49.9021 13.4692C50.7962 13.4692 51.6066 13.6756 52.333 14.0882C53.0595 14.4894 53.6296 15.0624 54.0431 15.8074C54.4678 16.5525 54.6802 17.4121 54.6802 18.3863C54.6802 19.3606 54.4622 20.2203 54.0263 20.9653C53.6016 21.7103 53.0204 22.2891 52.2827 22.7018C51.5562 23.1029 50.7403 23.3034 49.835 23.3034ZM49.835 21.206C50.2597 21.206 50.6565 21.1028 51.0254 20.8965C51.4054 20.6788 51.7071 20.3578 51.9307 19.9337C52.1542 19.5096 52.266 18.9938 52.266 18.3863C52.266 17.4809 52.0313 16.7874 51.5619 16.306C51.1036 15.8131 50.5391 15.5667 49.8685 15.5667C49.1979 15.5667 48.6335 15.8131 48.1753 16.306C47.7282 16.7874 47.5047 17.4809 47.5047 18.3863C47.5047 19.2919 47.7226 19.991 48.1585 20.4839C48.6056 20.9653 49.1644 21.206 49.835 21.206Z" fill="black"/>
<path d="M65.1704 13.6241V23.1489H62.8066V21.9454C62.5047 22.358 62.108 22.6847 61.6162 22.9254C61.1356 23.1547 60.6103 23.2693 60.0402 23.2693C59.3138 23.2693 58.6711 23.1146 58.1122 22.8051C57.5534 22.4842 57.1119 22.02 56.7878 21.4125C56.4748 20.7935 56.3184 20.06 56.3184 19.2118V13.6241H58.6655V18.8679C58.6655 19.6244 58.8499 20.2089 59.2188 20.6215C59.5876 21.0227 60.0906 21.2233 60.7277 21.2233C61.3759 21.2233 61.8845 21.0227 62.2532 20.6215C62.6221 20.2089 62.8066 19.6244 62.8066 18.8679V13.6241H65.1704Z" fill="black"/>
<path d="M69.8335 15.1029C70.1353 14.5987 70.5265 14.2032 71.0071 13.9166C71.4989 13.6301 72.0577 13.4868 72.6836 13.4868V16.0142H72.0633C71.3257 16.0142 70.7668 16.1919 70.3868 16.5471C70.0179 16.9024 69.8335 17.5214 69.8335 18.4039V23.1491H67.4863V13.6244H69.8335V15.1029Z" fill="black"/>
<path d="M77.9028 13.4692C78.5957 13.4692 79.2048 13.6125 79.7301 13.899C80.2554 14.1741 80.669 14.5351 80.9708 14.9822V13.624H83.3347V23.2175C83.3347 24.1001 83.1614 24.8852 82.8149 25.5729C82.4685 26.2721 81.9488 26.8223 81.2558 27.2234C80.5628 27.636 79.7246 27.8423 78.741 27.8423C77.4221 27.8423 76.338 27.5271 75.4886 26.8968C74.6503 26.2664 74.1753 25.4067 74.0634 24.3178H76.3938C76.5168 24.7534 76.7795 25.0972 77.1818 25.3494C77.5954 25.613 78.0927 25.7449 78.6739 25.7449C79.3557 25.7449 79.909 25.5328 80.3337 25.1087C80.7584 24.6961 80.9708 24.0657 80.9708 23.2175V21.7389C80.669 22.186 80.2499 22.5585 79.7134 22.8565C79.1881 23.1545 78.5846 23.3034 77.9028 23.3034C77.1203 23.3034 76.405 23.0971 75.7568 22.6845C75.1085 22.2719 74.5944 21.6931 74.2144 20.9481C73.8455 20.1916 73.6611 19.3262 73.6611 18.3519C73.6611 17.3892 73.8455 16.5352 74.2144 15.7903C74.5944 15.0452 75.1029 14.4721 75.74 14.0709C76.3883 13.6698 77.1092 13.4692 77.9028 13.4692ZM80.9708 18.3863C80.9708 17.8018 80.859 17.3032 80.6355 16.8906C80.4119 16.4665 80.1102 16.1456 79.7301 15.9277C79.3502 15.6985 78.9421 15.5839 78.5063 15.5839C78.0704 15.5839 77.668 15.6928 77.2992 15.9106C76.9303 16.1283 76.6286 16.4493 76.3938 16.8734C76.1703 17.286 76.0585 17.7788 76.0585 18.3519C76.0585 18.9251 76.1703 19.4293 76.3938 19.8649C76.6286 20.289 76.9303 20.6156 77.2992 20.8449C77.6792 21.0741 78.0815 21.1887 78.5063 21.1887C78.9421 21.1887 79.3502 21.0799 79.7301 20.8621C80.1102 20.6329 80.4119 20.3119 80.6355 19.8993C80.859 19.4752 80.9708 18.9709 80.9708 18.3863Z" fill="black"/>
<path d="M87.9739 10.4265V23.1491H85.627V10.4265H87.9739Z" fill="black"/>
<path d="M89.6895 18.3519C89.6895 17.3892 89.8741 16.5352 90.2425 15.7903C90.6231 15.0452 91.131 14.4721 91.7682 14.0709C92.4166 13.6698 93.1378 13.4692 93.931 13.4692C94.6245 13.4692 95.2278 13.6125 95.7419 13.899C96.2672 14.1856 96.6859 14.5467 96.9988 14.9822V13.624H99.3628V23.1487H96.9988V21.7561C96.6972 22.2031 96.2785 22.5756 95.7419 22.8737C95.2166 23.1602 94.6072 23.3034 93.9145 23.3034C93.1318 23.3034 92.4166 23.0971 91.7682 22.6845C91.131 22.2719 90.6231 21.6931 90.2425 20.9481C89.8741 20.1916 89.6895 19.3262 89.6895 18.3519ZM96.9988 18.3863C96.9988 17.8018 96.8879 17.3032 96.6642 16.8906C96.4406 16.4665 96.1389 16.1456 95.7584 15.9277C95.3787 15.6985 94.9704 15.5839 94.5343 15.5839C94.0992 15.5839 93.6961 15.6928 93.3277 15.9106C92.9593 16.1283 92.6567 16.4493 92.4227 16.8734C92.199 17.286 92.0872 17.7788 92.0872 18.3519C92.0872 18.9251 92.199 19.4293 92.4227 19.8649C92.6567 20.289 92.9593 20.6156 93.3277 20.8449C93.7074 21.0741 94.1105 21.1887 94.5343 21.1887C94.9704 21.1887 95.3787 21.0799 95.7584 20.8621C96.1389 20.6329 96.4406 20.3119 96.6642 19.8993C96.8879 19.4752 96.9988 18.9709 96.9988 18.3863Z" fill="black"/>
<path d="M105.209 23.3034C104.449 23.3034 103.768 23.166 103.164 22.8908C102.56 22.6043 102.08 22.2203 101.722 21.7389C101.376 21.2576 101.185 20.7245 101.152 20.14H103.516C103.56 20.5068 103.734 20.8105 104.036 21.0512C104.348 21.2919 104.734 21.4123 105.193 21.4123C105.639 21.4123 105.986 21.3206 106.232 21.1372C106.489 20.9538 106.618 20.7188 106.618 20.4323C106.618 20.1228 106.461 19.8936 106.148 19.7445C105.846 19.5841 105.36 19.4122 104.69 19.2288C103.997 19.0569 103.427 18.8792 102.98 18.6958C102.544 18.5125 102.164 18.2316 101.84 17.8534C101.527 17.4751 101.37 16.9651 101.37 16.3232C101.37 15.796 101.516 15.3146 101.806 14.879C102.108 14.4435 102.532 14.0996 103.08 13.8475C103.639 13.5953 104.293 13.4692 105.042 13.4692C106.148 13.4692 107.031 13.7557 107.69 14.3288C108.35 14.8905 108.713 15.6527 108.781 16.6155H106.534C106.5 16.2372 106.344 15.9393 106.064 15.7214C105.796 15.4922 105.433 15.3776 104.974 15.3776C104.55 15.3776 104.22 15.4578 103.985 15.6183C103.762 15.7788 103.65 16.0023 103.65 16.2888C103.65 16.6098 103.807 16.8562 104.12 17.0281C104.433 17.1886 104.919 17.3548 105.579 17.5267C106.249 17.6987 106.802 17.8763 107.238 18.0597C107.674 18.243 108.048 18.5296 108.361 18.9193C108.685 19.2976 108.853 19.8019 108.864 20.4323C108.864 20.9824 108.713 21.4753 108.411 21.9108C108.121 22.3464 107.696 22.6903 107.137 22.9424C106.589 23.1831 105.947 23.3034 105.209 23.3034Z" fill="black"/>
<path d="M114.345 23.3034C113.585 23.3034 112.903 23.166 112.299 22.8908C111.696 22.6043 111.216 22.2203 110.858 21.7389C110.511 21.2576 110.321 20.7245 110.288 20.14H112.652C112.696 20.5068 112.87 20.8105 113.171 21.0512C113.484 21.2919 113.87 21.4123 114.329 21.4123C114.775 21.4123 115.122 21.3206 115.368 21.1372C115.624 20.9538 115.754 20.7188 115.754 20.4323C115.754 20.1228 115.597 19.8936 115.284 19.7445C114.982 19.5841 114.496 19.4122 113.825 19.2288C113.132 19.0569 112.562 18.8792 112.115 18.6958C111.679 18.5125 111.299 18.2316 110.976 17.8534C110.663 17.4751 110.506 16.9651 110.506 16.3232C110.506 15.796 110.651 15.3146 110.942 14.879C111.243 14.4435 111.668 14.0996 112.216 13.8475C112.774 13.5953 113.429 13.4692 114.178 13.4692C115.284 13.4692 116.167 13.7557 116.826 14.3288C117.486 14.8905 117.849 15.6527 117.916 16.6155H115.67C115.636 16.2372 115.48 15.9393 115.2 15.7214C114.932 15.4922 114.569 15.3776 114.11 15.3776C113.685 15.3776 113.356 15.4578 113.121 15.6183C112.897 15.7788 112.786 16.0023 112.786 16.2888C112.786 16.6098 112.942 16.8562 113.255 17.0281C113.568 17.1886 114.055 17.3548 114.713 17.5267C115.384 17.6987 115.937 17.8763 116.373 18.0597C116.809 18.243 117.184 18.5296 117.497 18.9193C117.821 19.2976 117.988 19.8019 118 20.4323C118 20.9824 117.849 21.4753 117.547 21.9108C117.257 22.3464 116.832 22.6903 116.273 22.9424C115.725 23.1831 115.083 23.3034 114.345 23.3034Z" fill="black"/>
</g>
</svg>
