<svg width="120" height="35" viewBox="0 0 120 35" fill="none" xmlns="http://www.w3.org/2000/svg">
<g style="mix-blend-mode:luminosity" opacity="0.5">
<path fill-rule="evenodd" clip-rule="evenodd" d="M18.0416 3.55275C17.7084 3.48225 17.3647 3.48225 17.0314 3.55275C16.6463 3.63424 16.302 3.8326 16.0282 3.99029L15.9536 4.03317L6.67696 9.33439C6.65128 9.34905 6.62483 9.364 6.59771 9.37943C6.30796 9.54356 5.94367 9.74995 5.66388 10.0622C5.42204 10.3322 5.23903 10.6523 5.12702 11.0008C4.99747 11.404 4.99901 11.8319 5.00025 12.1722C5.00035 12.2039 5.00044 12.235 5.00044 12.2652V22.7321C5.00044 22.7623 5.00035 22.7934 5.00025 22.8252C4.99901 23.1654 4.99747 23.5932 5.12702 23.9964C5.23903 24.3451 5.42204 24.665 5.66388 24.9351C5.94367 25.2473 6.30806 25.4538 6.59771 25.6179C6.62483 25.6333 6.65128 25.6482 6.67696 25.6629L15.9536 30.9642L16.0282 31.007C16.302 31.1647 16.6463 31.363 17.0314 31.4446C17.3647 31.515 17.7084 31.515 18.0416 31.4446C18.4268 31.363 18.7711 31.1647 19.0448 31.007L19.1194 30.9642L28.3961 25.6629C28.4074 25.6565 28.4189 25.6499 28.4306 25.6432C28.4453 25.6349 28.4601 25.6265 28.4753 25.6179C28.765 25.4538 29.1293 25.2473 29.4091 24.9351C29.651 24.665 29.8341 24.3451 29.9461 23.9964C30.0756 23.5932 30.0741 23.1654 30.0728 22.8252C30.0727 22.7934 30.0726 22.7623 30.0726 22.7321V12.2652C30.0726 12.235 30.0727 12.204 30.0728 12.1722C30.0741 11.8319 30.0756 11.404 29.9461 11.0008C29.8341 10.6523 29.651 10.3322 29.4091 10.0622C29.1293 9.74995 28.765 9.54356 28.4753 9.37943L28.4742 9.37876C28.4476 9.36362 28.4214 9.34886 28.3961 9.33439L19.1194 4.03317L19.0448 3.99029C18.7711 3.8326 18.4268 3.63424 18.0416 3.55275ZM17.1712 6.28761C17.3612 6.17905 17.4582 6.12419 17.5306 6.0883L17.5365 6.08535L17.5425 6.0883C17.6149 6.12419 17.7118 6.17905 17.9018 6.28761L26.2376 11.0511L17.5365 16.0235L8.83543 11.0511L17.1712 6.28761ZM7.50769 13.2427L16.2829 18.2574V28.202L7.8945 23.4085C7.69405 23.2939 7.59163 23.2348 7.51976 23.1876L7.51373 23.1837L7.51325 23.1763C7.50817 23.0889 7.50769 22.9681 7.50769 22.7321V13.2427Z" fill="black"/>
<path d="M41.482 21.8079H45.4725V24.2268H38.4355V11.3627H41.482V21.8079Z" fill="black"/>
<path d="M48.2801 12.9389C47.7456 12.9389 47.3062 12.7802 46.9617 12.4625C46.6292 12.1326 46.4629 11.7295 46.4629 11.253C46.4629 10.7644 46.6292 10.3613 46.9617 10.0436C47.3062 9.71373 47.7456 9.54883 48.2801 9.54883C48.8026 9.54883 49.2302 9.71373 49.5628 10.0436C49.9072 10.3613 50.0794 10.7644 50.0794 11.253C50.0794 11.7295 49.9072 12.1326 49.5628 12.4625C49.2302 12.7802 48.8026 12.9389 48.2801 12.9389ZM49.7944 14.0018V24.2272H46.7479V14.0018H49.7944Z" fill="black"/>
<path d="M55.6003 13.855C56.301 13.855 56.9127 14.0016 57.4352 14.2948C57.9697 14.588 58.3794 14.9728 58.6645 15.4492V14.0016H61.7108V24.2086C61.7108 25.1492 61.5267 25.9984 61.1586 26.7558C60.8023 27.5254 60.25 28.1362 59.5017 28.5883C58.7654 29.0403 57.845 29.2663 56.7405 29.2663C55.2677 29.2663 54.0741 28.9059 53.1596 28.1851C52.2451 27.4765 51.7225 26.5115 51.5918 25.2898H54.6026C54.6977 25.6807 54.9233 25.9861 55.2796 26.206C55.6359 26.4382 56.0753 26.5542 56.5979 26.5542C57.2274 26.5542 57.7263 26.3649 58.0944 25.9861C58.4745 25.6196 58.6645 25.0271 58.6645 24.2086V22.7609C58.3676 23.2374 57.9578 23.6283 57.4352 23.9337C56.9127 24.2269 56.301 24.3735 55.6003 24.3735C54.7807 24.3735 54.0384 24.1597 53.3734 23.7321C52.7083 23.2923 52.1798 22.6754 51.7878 21.8813C51.4078 21.075 51.2178 20.1465 51.2178 19.0959C51.2178 18.0453 51.4078 17.1229 51.7878 16.3288C52.1798 15.5348 52.7083 14.9239 53.3734 14.4963C54.0384 14.0687 54.7807 13.855 55.6003 13.855ZM58.6645 19.1142C58.6645 18.3323 58.4507 17.7155 58.0231 17.2634C57.6074 16.8114 57.0967 16.5854 56.491 16.5854C55.8853 16.5854 55.3687 16.8114 54.9411 17.2634C54.5254 17.7032 54.3176 18.314 54.3176 19.0959C54.3176 19.8778 54.5254 20.5009 54.9411 20.9651C55.3687 21.4171 55.8853 21.6431 56.491 21.6431C57.0967 21.6431 57.6074 21.4171 58.0231 20.9651C58.4507 20.513 58.6645 19.8961 58.6645 19.1142Z" fill="black"/>
<path d="M69.847 13.8917C70.9871 13.8917 71.9017 14.2826 72.5905 15.0645C73.2793 15.8342 73.6238 16.897 73.6238 18.2531V24.227H70.5952V18.6745C70.5952 17.9904 70.423 17.459 70.0786 17.0803C69.7341 16.7015 69.2709 16.5122 68.689 16.5122C68.107 16.5122 67.6439 16.7015 67.2994 17.0803C66.955 17.459 66.7827 17.9904 66.7827 18.6745V24.227H63.7363V10.6665H66.7827V15.376C67.0916 14.924 67.5132 14.5637 68.0476 14.2949C68.5821 14.0261 69.1819 13.8917 69.847 13.8917Z" fill="black"/>
<path d="M81.1029 21.5701V24.2272H79.553C78.4485 24.2272 77.5874 23.9523 76.9698 23.4026C76.3523 22.8406 76.0435 21.9304 76.0435 20.6722V16.604H74.832V14.0018H76.0435V11.5096H79.0899V14.0018H81.0852V16.604H79.0899V20.7088C79.0899 21.0142 79.1611 21.2341 79.3036 21.3685C79.4461 21.5029 79.6836 21.5701 80.0162 21.5701H81.1029Z" fill="black"/>
<path d="M85.6685 15.4493C85.9534 14.9729 86.3633 14.5881 86.8977 14.2949C87.4321 14.0017 88.0438 13.8551 88.7326 13.8551C89.552 13.8551 90.2945 14.0689 90.9595 14.4964C91.6245 14.924 92.1476 15.5349 92.5271 16.3289C92.919 17.123 93.1154 18.0454 93.1154 19.096C93.1154 20.1467 92.919 21.0751 92.5271 21.8814C92.1476 22.6756 91.6245 23.2924 90.9595 23.7322C90.2945 24.1599 89.552 24.3736 88.7326 24.3736C88.0319 24.3736 87.4202 24.2332 86.8977 23.9521C86.3751 23.6589 85.9653 23.2741 85.6685 22.7977V24.227H82.6221V10.6665H85.6685V15.4493ZM90.0157 19.096C90.0157 18.3142 89.8011 17.7033 89.3737 17.2635C88.9583 16.8115 88.4416 16.5855 87.8241 16.5855C87.2183 16.5855 86.7017 16.8115 86.2741 17.2635C85.8585 17.7156 85.6507 18.3325 85.6507 19.1143C85.6507 19.8962 85.8585 20.5132 86.2741 20.9652C86.7017 21.4172 87.2183 21.6432 87.8241 21.6432C88.4297 21.6432 88.9464 21.4172 89.3737 20.9652C89.8011 20.501 90.0157 19.8779 90.0157 19.096Z" fill="black"/>
<path d="M99.0597 24.3735C98.0862 24.3735 97.2076 24.1597 96.4238 23.7321C95.6515 23.3046 95.0402 22.6937 94.5889 21.8996C94.1491 21.1056 93.9297 20.1771 93.9297 19.1142C93.9297 18.0636 94.1549 17.1412 94.6062 16.3472C95.0575 15.5409 95.6755 14.9239 96.4593 14.4963C97.2431 14.0687 98.1217 13.855 99.0962 13.855C100.07 13.855 100.948 14.0687 101.732 14.4963C102.516 14.9239 103.134 15.5409 103.585 16.3472C104.036 17.1412 104.262 18.0636 104.262 19.1142C104.262 20.1648 104.031 21.0933 103.567 21.8996C103.116 22.6937 102.493 23.3046 101.697 23.7321C100.913 24.1597 100.034 24.3735 99.0597 24.3735ZM99.0597 21.6614C99.6423 21.6614 100.135 21.4415 100.539 21.0017C100.954 20.5619 101.162 19.9328 101.162 19.1142C101.162 18.2957 100.961 17.6666 100.556 17.2268C100.165 16.787 99.6778 16.5671 99.0962 16.5671C98.5021 16.5671 98.0086 16.787 97.6167 17.2268C97.2248 17.6543 97.0294 18.2835 97.0294 19.1142C97.0294 19.9328 97.2191 20.5619 97.5995 21.0017C97.9914 21.4415 98.4781 21.6614 99.0597 21.6614Z" fill="black"/>
<path d="M111.58 24.2272L109.673 21.3867L108.07 24.2272H104.774L108.053 19.0045L104.685 14.0018H108.105L110.012 16.8238L111.615 14.0018H114.911L111.58 19.1511L115 24.2272H111.58Z" fill="black"/>
</g>
</svg>
