<svg width="120" height="35" viewBox="0 0 120 35" fill="none" xmlns="http://www.w3.org/2000/svg">
<g style="mix-blend-mode:luminosity" opacity="0.5">
<path d="M13.8947 24.2664C19.9117 24.2664 24.7894 19.3939 24.7894 13.3833C24.7894 12.7021 24.7267 12.0355 24.6069 11.389C23.9597 11.2692 23.2924 11.2067 22.6104 11.2067C16.5935 11.2067 11.7158 16.0792 11.7158 22.0897C11.7158 22.7709 11.7784 23.4374 11.8983 24.084C12.5455 24.2037 13.2128 24.2664 13.8947 24.2664Z" fill="#175CD3"/>
<path fill-rule="evenodd" clip-rule="evenodd" d="M11.8983 24.084C6.83474 23.1472 3 18.7126 3 13.3832C3 7.37274 7.87768 2.50024 13.8947 2.50024C19.2297 2.50024 23.6691 6.33089 24.6068 11.389C23.9596 11.2693 23.2923 11.2066 22.6104 11.2066C16.5934 11.2066 11.7157 16.0791 11.7157 22.0897C11.7157 22.7709 11.7784 23.4375 11.8983 24.084Z" fill="#1570EF"/>
<path fill-rule="evenodd" clip-rule="evenodd" d="M13.8949 24.2663C19.9118 24.2663 24.7895 19.3938 24.7895 13.3833C24.7895 12.7021 24.7268 12.0355 24.6069 11.389C29.6705 12.3257 33.5052 16.7604 33.5052 22.0898C33.5052 28.1002 28.6275 32.9727 22.6105 32.9727C17.2755 32.9727 12.8361 29.1421 11.8984 24.084C12.5456 24.2037 13.2129 24.2663 13.8949 24.2663Z" fill="#2E90FA"/>
<path d="M49.8326 24.8281C53.5556 24.8281 56.2387 22.7296 56.509 19.6131H53.3892C53.1397 21.1091 51.7045 22.1272 49.8326 22.1272C47.4824 22.1272 45.6729 20.5066 45.6729 17.3901C45.6729 14.2736 47.4824 12.6322 49.8326 12.6322C51.6629 12.6322 53.098 13.6503 53.306 15.1669H56.5715C56.1763 12.0297 53.4932 9.95203 49.8326 9.95203C45.9432 9.95203 42.5322 12.4868 42.5322 17.3901C42.5322 22.2934 45.8808 24.8281 49.8326 24.8281Z" fill="black"/>
<path d="M62.2982 14.0243C59.428 14.0243 57.7224 15.7072 57.5977 17.8056H60.1767C60.2184 16.933 60.8631 16.1435 62.1319 16.1435C63.3174 16.1435 64.0037 16.746 64.0037 17.6186C64.0037 18.055 63.7334 18.3874 63.2133 18.3874H61.4455C59.1576 18.3874 57.6185 19.634 57.6185 21.6908C57.6185 23.4776 59.012 24.8282 61.0503 24.8282C62.4854 24.8282 63.6502 24.184 64.0037 23.2076V24.662H66.8739V17.9303C66.8739 15.5618 64.9397 14.0243 62.2982 14.0243ZM61.7782 22.7297C60.9671 22.7297 60.3848 22.2519 60.3848 21.5662C60.3848 20.7559 61.0087 20.2157 61.8823 20.2157H64.0037V20.3611C64.0037 21.6908 63.1926 22.7297 61.7782 22.7297Z" fill="black"/>
<path d="M68.8174 28.9004H71.7084V23.727C72.27 24.4334 73.2891 24.8282 74.4747 24.8282C77.4905 24.8282 79.5289 22.6881 79.5289 19.4262C79.5289 16.1642 77.6569 14.0243 74.7243 14.0243C73.3723 14.0243 72.3324 14.5229 71.7084 15.3332V14.1905H68.8174V28.9004ZM74.1212 22.335C72.5612 22.335 71.542 21.1715 71.542 19.4262C71.542 17.6602 72.5612 16.4967 74.1212 16.4967C75.6395 16.4967 76.6794 17.6602 76.6794 19.4262C76.6794 21.1715 75.6395 22.335 74.1212 22.335Z" fill="black"/>
<path d="M84.6194 24.8282C87.0736 24.8282 88.696 23.5192 88.696 21.5246C88.696 16.7875 82.9554 19.2185 82.9554 17.0784C82.9554 16.4136 83.517 16.0604 84.3282 16.0604C85.1185 16.0604 85.9297 16.5382 86.0545 17.4317H88.5712C88.4672 15.3747 86.7617 14.0243 84.245 14.0243C82.1027 14.0243 80.5012 15.3332 80.5012 17.1823C80.5012 21.587 86.1377 19.4885 86.1377 21.6286C86.1377 22.2103 85.5137 22.6466 84.6194 22.6466C83.5379 22.6466 82.8098 22.0648 82.7059 21.1299H80.21C80.314 23.3945 82.0611 24.8282 84.6194 24.8282Z" fill="black"/>
<path d="M100.114 14.1904H97.2028V19.9248C97.2028 21.2545 96.3081 22.2518 95.0391 22.2518C93.854 22.2518 93.022 21.3376 93.022 20.0702V14.1904H90.1309V20.7143C90.1309 23.1036 91.6698 24.8281 94.0203 24.8281C95.4556 24.8281 96.62 24.2048 97.2028 23.2075V24.6619H100.114V14.1904Z" fill="black"/>
<path d="M102.194 24.662H105.085V9.64038H102.194V24.662Z" fill="black"/>
<path d="M114.171 21.1091C113.942 22.0025 113.173 22.4596 112.008 22.4596C110.552 22.4596 109.616 21.5455 109.408 20.0703H116.937C116.958 19.8418 116.979 19.5301 116.979 19.1354C116.979 16.746 115.502 14.0243 111.8 14.0243C108.243 14.0243 106.621 16.746 106.621 19.4054C106.621 22.0441 108.451 24.8282 112.008 24.8282C114.587 24.8282 116.584 23.3738 117 21.1091H114.171ZM111.8 16.1435C113.193 16.1435 114.005 17.0784 114.088 18.2419H109.45C109.699 16.7875 110.49 16.1435 111.8 16.1435Z" fill="black"/>
</g>
</svg>
