<svg width="40" height="41" viewBox="0 0 40 41" fill="none" xmlns="http://www.w3.org/2000/svg">
<path d="M13.3333 32.1667C15.1743 32.1667 16.6667 30.6743 16.6667 28.8333C16.6667 26.9924 15.1743 25.5 13.3333 25.5C11.4924 25.5 10 26.9924 10 28.8333C10 30.6743 11.4924 32.1667 13.3333 32.1667Z" stroke="black" stroke-miterlimit="1.5" stroke-linecap="round" stroke-linejoin="round"/>
<path d="M30.0003 32.1667C31.8413 32.1667 33.3337 30.6743 33.3337 28.8333C33.3337 26.9924 31.8413 25.5 30.0003 25.5C28.1594 25.5 26.667 26.9924 26.667 28.8333C26.667 30.6743 28.1594 32.1667 30.0003 32.1667Z" stroke="black" stroke-miterlimit="1.5" stroke-linecap="round" stroke-linejoin="round"/>
<path d="M16.7503 28.8333H25.0003V11.1C25.0003 10.7686 24.7317 10.5 24.4003 10.5H1.66699" stroke="black" stroke-linecap="round"/>
<path d="M9.41667 28.8341H5.6C5.26863 28.8341 5 28.5655 5 28.2341V19.6675" stroke="black" stroke-linecap="round"/>
<path d="M3.33398 15.5L10.0007 15.5" stroke="black" stroke-linecap="round" stroke-linejoin="round"/>
<path d="M25 15.5H34.6101C34.8472 15.5 35.0621 15.6396 35.1584 15.8563L38.2816 22.8836C38.3157 22.9604 38.3333 23.0434 38.3333 23.1273V28.2333C38.3333 28.5647 38.0647 28.8333 37.7333 28.8333H34.1667" stroke="black" stroke-linecap="round"/>
<path d="M25 28.8325H26.6667" stroke="black" stroke-linecap="round"/>
</svg>
