<svg width="40" height="41" viewBox="0 0 40 41" fill="none" xmlns="http://www.w3.org/2000/svg">
<path d="M5 12.1677L20 18.8344M35 12.1677L20 18.8344M20 37.1677V18.8344" stroke="black" stroke-linejoin="round"/>
<path d="M5 30.1101V12.5566C5 12.3195 5.13964 12.1046 5.35632 12.0083L19.7563 5.6083C19.9115 5.53935 20.0885 5.53935 20.2437 5.6083L34.6437 12.0083C34.8604 12.1046 35 12.3195 35 12.5566V30.1101C35 30.3472 34.8604 30.5621 34.6437 30.6584L20.2437 37.0584C20.0885 37.1273 19.9115 37.1273 19.7563 37.0584L5.35632 30.6584C5.13964 30.5621 5 30.3472 5 30.1101Z" stroke="black" stroke-linecap="round" stroke-linejoin="round"/>
<path d="M12.5 8.83221L27.1437 15.3405C27.3604 15.4368 27.5 15.6517 27.5 15.8888V22.1655" stroke="black" stroke-linecap="round" stroke-linejoin="round"/>
</svg>
