<svg width="37" height="36" viewBox="0 0 37 36" fill="none" xmlns="http://www.w3.org/2000/svg">
<path d="M7.87881 19.2601H4.87997C4.3978 19.2601 3.94502 19.0283 3.66309 18.6371C3.38116 18.246 3.30446 17.7432 3.45693 17.2857L3.95694 15.7857C4.16111 15.1732 4.73432 14.7601 5.37996 14.7601H8.28416" stroke="white" stroke-linecap="round" stroke-linejoin="round"/>
<path d="M24.3788 19.2601H28.8788V22.2601C28.8788 23.0885 28.2072 23.7601 27.3788 23.7601H24.3788" stroke="white" stroke-linecap="round" stroke-linejoin="round"/>
<path d="M28.8788 5.76007V14.7601H23.9663" stroke="white" stroke-linecap="round" stroke-linejoin="round"/>
<path d="M8.28416 28.2601H4.87997C4.3978 28.2601 3.94502 28.0284 3.66309 27.6372C3.38116 27.246 3.30446 26.7432 3.45693 26.2858L3.95694 24.7858C4.16111 24.1733 4.73432 23.7601 5.37996 23.7601H7.87881" stroke="white" stroke-linecap="round" stroke-linejoin="round"/>
<path d="M33.3789 5.76007V23.7601C33.3789 26.2454 31.3642 28.2601 28.8789 28.2601H23.9775" stroke="white" stroke-linecap="round" stroke-linejoin="round"/>
<rect x="7.87897" y="13.2599" width="16.5" height="16.5" rx="2" stroke="white" stroke-linecap="round" stroke-linejoin="round"/>
<path d="M12.379 19.26H19.879" stroke="white" stroke-linecap="round" stroke-linejoin="round"/>
<path d="M12.379 23.76H19.879" stroke="white" stroke-linecap="round" stroke-linejoin="round"/>
</svg>
