<svg width="36" height="36" viewBox="0 0 36 36" fill="none" xmlns="http://www.w3.org/2000/svg">
<path fill-rule="evenodd" clip-rule="evenodd" d="M7.19995 11.1001V29.1001C7.19995 30.757 8.5431 32.1001 10.2 32.1001H25.1999C26.8568 32.1001 28.1999 30.757 28.1999 29.1001V15.6001C28.1999 14.6264 27.8841 13.679 27.2999 12.9001L25.0499 9.9001C24.2001 8.76697 22.8664 8.1001 21.4499 8.1001H10.2C8.5431 8.1001 7.19995 9.44324 7.19995 11.1001Z" stroke="white" stroke-linecap="round" stroke-linejoin="round"/>
<path fill-rule="evenodd" clip-rule="evenodd" d="M11.7 3.6001H16.2C17.0284 3.6001 17.7 4.27167 17.7 5.1001V8.1001H10.2V5.1001C10.2 4.27167 10.8716 3.6001 11.7 3.6001Z" stroke="white" stroke-linecap="round" stroke-linejoin="round"/>
<path fill-rule="evenodd" clip-rule="evenodd" d="M14.5502 20.5065V20.5065C13.4999 19.3004 13.4999 17.5045 14.5502 16.2983L16.1526 14.4633C16.3533 14.2325 16.6441 14.1 16.95 14.1C17.2559 14.1 17.5467 14.2325 17.7474 14.4633L19.3498 16.2983C20.4001 17.5044 20.4001 19.3004 19.3498 20.5065V20.5065C18.7458 21.2011 17.8705 21.6 16.95 21.6C16.0295 21.6 15.1542 21.2011 14.5502 20.5065Z" stroke="white" stroke-linecap="round" stroke-linejoin="round"/>
<path d="M20.7 26.1H13.2" stroke="white" stroke-linecap="round" stroke-linejoin="round"/>
</svg>
