<svg width="37" height="36" viewBox="0 0 37 36" fill="none" xmlns="http://www.w3.org/2000/svg">
<path d="M26.2401 10.2601V7.26007C26.2401 6.43207 26.9121 5.76007 27.7401 5.76007H30.7401C31.5681 5.76007 32.2401 6.43207 32.2401 7.26007V10.2601" stroke="white" stroke-linecap="round" stroke-linejoin="round"/>
<path d="M26.2401 17.0101V21.5101" stroke="white" stroke-linecap="round" stroke-linejoin="round"/>
<path d="M28.4901 19.26H23.9901" stroke="white" stroke-linecap="round" stroke-linejoin="round"/>
<path d="M13.49 19.26H8.99002" stroke="white" stroke-linecap="round" stroke-linejoin="round"/>
<path d="M5.24008 10.2601V7.26007C5.24008 6.43207 5.91208 5.76007 6.74008 5.76007H9.74008C10.5681 5.76007 11.2401 6.43207 11.2401 7.26007V10.2601" stroke="white" stroke-linecap="round" stroke-linejoin="round"/>
<path fill-rule="evenodd" clip-rule="evenodd" d="M26.2401 10.26H32.2401C33.0681 10.26 33.7401 10.932 33.7401 11.76V26.76C33.7401 28.4175 32.3976 29.76 30.7401 29.76H6.74005C5.08255 29.76 3.74005 28.4175 3.74005 26.76V11.76C3.74005 10.932 4.41205 10.26 5.24005 10.26H11.2401L13.8006 7.69951C14.0826 7.41751 14.4636 7.26001 14.8611 7.26001H22.6191C23.0166 7.26001 23.3991 7.41751 23.6796 7.69951L26.2401 10.26V10.26Z" stroke="white" stroke-linecap="round" stroke-linejoin="round"/>
</svg>
