<svg width="37" height="36" viewBox="0 0 37 36" fill="none" xmlns="http://www.w3.org/2000/svg">
<path d="M20.161 16.0392C22.0103 17.8885 22.0103 20.8868 20.161 22.7362C18.3117 24.5855 15.3133 24.5855 13.464 22.7362C11.6147 20.8868 11.6147 17.8885 13.464 16.0392C15.3133 14.1898 18.3117 14.1898 20.161 16.0392" stroke="white" stroke-linecap="round" stroke-linejoin="round"/>
<path fill-rule="evenodd" clip-rule="evenodd" d="M32.6002 18.5566C32.6002 10.2961 25.9042 3.6001 17.6437 3.6001V9.5821C22.5997 9.5821 26.6182 13.5991 26.6182 18.5566H32.6002Z" stroke="white" stroke-linecap="round" stroke-linejoin="round"/>
<path d="M29.5252 18.5565V19.3876C29.5252 26.4091 23.8342 32.1001 16.8127 32.1001C9.79116 32.1001 4.10016 26.4091 4.10016 19.3876C4.10016 12.366 9.79116 6.67505 16.8127 6.67505H17.6437" stroke="white" stroke-linecap="round" stroke-linejoin="round"/>
</svg>
