<svg width="37" height="36" viewBox="0 0 37 36" fill="none" xmlns="http://www.w3.org/2000/svg">
<path d="M18.38 14.88V7.38" stroke="white" stroke-linecap="round" stroke-linejoin="round"/>
<path d="M18.38 28.38V20.88" stroke="white" stroke-linecap="round" stroke-linejoin="round"/>
<path d="M20.4951 15.7652L25.8051 10.4552" stroke="white" stroke-linecap="round" stroke-linejoin="round"/>
<path d="M10.9551 25.3051L16.2651 19.9951" stroke="white" stroke-linecap="round" stroke-linejoin="round"/>
<path d="M21.38 17.88H28.88" stroke="white" stroke-linecap="round" stroke-linejoin="round"/>
<path d="M7.88002 17.88H15.38" stroke="white" stroke-linecap="round" stroke-linejoin="round"/>
<path d="M20.4951 19.9951L25.8051 25.3051" stroke="white" stroke-linecap="round" stroke-linejoin="round"/>
<path d="M10.9551 10.4552L16.2651 15.7652" stroke="white" stroke-linecap="round" stroke-linejoin="round"/>
<path d="M28.9866 7.27334C34.8445 13.1312 34.8445 22.6287 28.9866 28.4865C23.1287 34.3443 13.6313 34.3443 7.77345 28.4865C1.91559 22.6286 1.91559 13.1311 7.77345 7.27334C13.6313 1.41548 23.1288 1.41548 28.9866 7.27334" stroke="white" stroke-linecap="round" stroke-linejoin="round"/>
<path d="M25.8046 10.4554C29.9051 14.5559 29.9051 21.2041 25.8046 25.3046C21.7041 29.4051 15.0559 29.4051 10.9554 25.3046C6.85489 21.2041 6.85489 14.5559 10.9554 10.4554C15.0559 6.35488 21.7041 6.35488 25.8046 10.4554" stroke="white" stroke-linecap="round" stroke-linejoin="round"/>
<path d="M20.5014 15.7587C21.6729 16.9303 21.6729 18.8298 20.5014 20.0013C19.3298 21.1729 17.4303 21.1729 16.2587 20.0013C15.0871 18.8298 15.0871 16.9303 16.2587 15.7587C17.4303 14.5871 19.3298 14.5871 20.5014 15.7587" stroke="white" stroke-linecap="round" stroke-linejoin="round"/>
</svg>
