<svg width="100" height="16" viewBox="0 0 100 16" fill="none" xmlns="http://www.w3.org/2000/svg">
<path d="M97.6747 16H81.0312V12.2743L92.9549 3.72572H82.612L83.3573 0H100.001V3.72572L88.0996 12.2743H98.42L97.6747 16Z" fill="black"/>
<path d="M70.5148 11.4743H64.7336L63.8303 16H59.0879L62.2495 0H77.4702C77.8918 0 78.2757 0.0914287 78.622 0.274286C78.9833 0.441905 79.2769 0.678096 79.5027 0.982858C79.7436 1.27238 79.9167 1.60762 80.0221 1.98857C80.1275 2.36952 80.1425 2.76571 80.0673 3.17714L78.8478 9.32572C78.7273 9.95048 78.4262 10.4686 77.9445 10.88C77.4627 11.2762 76.9057 11.4743 76.2734 11.4743H75.2571L77.267 16H72.5246L70.5148 11.4743ZM74.3312 7.61143C74.4216 7.53524 74.4818 7.43619 74.5119 7.31429L75.0765 4.36571C75.1066 4.1981 75.0689 4.05333 74.9636 3.93143C74.8732 3.79429 74.7453 3.72572 74.5797 3.72572H66.2466H63.6071L66.0795 4.57143L66.049 4.72572L65.8514 5.72571L65.4562 7.72571H73.9925C74.1129 7.72571 74.2259 7.68762 74.3312 7.61143Z" fill="black"/>
<path d="M51.75 11.4743H44.9074L44.0041 16H39.2617L41.9942 2.14857C42.1147 1.50857 42.4158 0.990477 42.8975 0.594286C43.3944 0.198095 43.9589 0 44.5912 0H55.5439C55.9654 0 56.3493 0.0914287 56.6956 0.274286C57.0569 0.441905 57.3505 0.678096 57.5763 0.982858C57.8172 1.27238 57.9903 1.60762 58.0957 1.98857C58.2011 2.36952 58.2086 2.76571 58.1183 3.17714L55.589 16H50.8467L51.75 11.4743ZM45.6301 7.72571H52.4952L53.1501 4.36571C53.1802 4.1981 53.1426 4.05333 53.0372 3.93143C52.9318 3.79429 52.7963 3.72572 52.6307 3.72572H46.8721H46.4317H44.2528L46.2624 4.60571L46.172 5.05143L45.9914 5.94286L45.6301 7.72571Z" fill="black"/>
<path d="M34.8129 9.87429H26.3896L25.9153 12.2743H35.9195L35.1743 16H20.4277L23.5893 0H38.3358L37.6132 3.72572H27.5865H24.9941L27.4383 4.47572L27.3493 4.92571L27.1122 6.12571H35.5582L34.8129 9.87429Z" fill="black"/>
<path d="M6.50999 4.52571L5.10986 11.6343C5.07975 11.8019 5.11739 11.9543 5.22277 12.0914C5.32816 12.2133 5.46365 12.2743 5.62926 12.2743H12.3363C12.4568 12.2743 12.5622 12.2362 12.6525 12.16C12.7579 12.0686 12.8256 11.9619 12.8557 11.84L13.2848 9.6H11.3201C11.0792 9.6 10.8534 9.54667 10.6426 9.44C10.4319 9.33333 10.2512 9.19619 10.1006 9.02857C9.96515 8.84571 9.86729 8.64 9.80707 8.41143C9.74685 8.16762 9.73932 7.92381 9.78448 7.68L10.0329 6.4H18.6595L17.4626 12.5714C17.3572 13.0743 17.1766 13.539 16.9206 13.9657C16.6647 14.3771 16.3561 14.7352 15.9947 15.04C15.6334 15.3448 15.2194 15.581 14.7527 15.7486C14.301 15.9162 13.8268 16 13.33 16H2.33218C1.97086 16 1.63212 15.9238 1.31596 15.7714C0.9998 15.619 0.736334 15.4133 0.525562 15.1543C0.31479 14.88 0.164238 14.5752 0.0739072 14.24C-0.0164238 13.9048 -0.0239514 13.5543 0.0513244 13.1886L2.24185 2.14857C2.36229 1.50857 2.66339 0.990477 3.14516 0.594286C3.62692 0.198095 4.18397 0 4.81628 0H19.5176L18.7724 3.72572H3.86781L6.50999 4.52571Z" fill="#FF001F"/>
</svg>
