<svg width="40" height="41" viewBox="0 0 40 41" fill="none" xmlns="http://www.w3.org/2000/svg">
<path d="M33 35.5006H7C5.89543 35.5006 5 34.6052 5 33.5007V15.834C5 14.7294 5.89543 13.834 7 13.834H33C34.1046 13.834 35 14.7294 35 15.834V33.5006C35 34.6052 34.1046 35.5006 33 35.5006Z" stroke="black"/>
<path d="M11.667 13.8332V7.7665C11.667 7.43513 11.9356 7.1665 12.267 7.1665H27.7337C28.065 7.1665 28.3337 7.43513 28.3337 7.7665V13.8332" stroke="black"/>
<path d="M16.667 7.1665V13.8332" stroke="black"/>
<path d="M20 7.1665V13.8332" stroke="black"/>
<path d="M27.4997 25.5007C27.0394 25.5007 26.6663 25.1276 26.6663 24.6673C26.6663 24.2071 27.0394 23.834 27.4997 23.834C27.9599 23.834 28.333 24.2071 28.333 24.6673C28.333 25.1276 27.9599 25.5007 27.4997 25.5007Z" fill="black" stroke="black" stroke-linecap="round" stroke-linejoin="round"/>
</svg>
