<svg width="729" height="106" viewBox="0 0 729 106" fill="none" xmlns="http://www.w3.org/2000/svg">
<path d="M63.63 49.974V74.166C59.346 76.182 54.936 77.064 50.148 77.064C45.234 77.064 40.95 76.056 37.17 73.914C33.39 71.772 30.366 68.748 28.35 64.968C26.208 61.188 25.2 56.778 25.2 51.864C25.2 44.304 27.468 38.13 32.13 33.594C36.666 29.058 42.84 26.664 50.4 26.664C58.716 26.664 65.772 29.94 71.82 36.492L87.696 22.128C83.286 16.962 77.868 12.93 71.316 10.158C64.764 7.386 57.33 6 49.14 6C39.69 6 31.248 8.016 23.814 11.922C16.254 15.828 10.458 21.246 6.30001 28.176C2.01601 35.232 0 43.044 0 51.864C0 60.684 2.01601 68.622 6.30001 75.552C10.458 82.608 16.254 88.026 23.688 91.932C30.996 95.838 39.312 97.728 48.636 97.728C55.188 97.728 61.74 96.846 68.292 94.83C74.844 92.94 80.64 90.168 85.68 86.514V49.974H63.63Z" fill="white"/>
<path d="M155.747 64.338L189.515 7.76401H165.323L144.407 42.792L123.491 7.76401H97.1572L130.799 63.96V95.964H155.747V64.338Z" fill="white"/>
<path d="M304.68 41.406L281.874 82.23L282 95.964H304.932L304.68 41.406ZM202.368 95.964H225.426V83.742L202.368 42.54V95.964ZM284.142 7.76401L253.902 58.668L222.906 7.76401H202.368L225.426 50.478L247.98 87.27H259.068L281.748 49.218L304.05 7.76401H284.142Z" fill="white"/>
<path d="M397.112 7.76392H381.74L364.478 27.5459L320 80.3399V95.9639H334.742L352.634 76.1819L397.112 23.3879V7.76392ZM357.422 7.76392H321.134V27.5459H339.53L357.422 7.76392ZM376.952 76.1819L359.564 95.9639H399.002V76.1819H376.952Z" fill="white"/>
<path d="M422.5 0H534.5L519.5 106H407.5L422.5 0Z" fill="#FF4B2B"/>
<path d="M448.378 87.706C455.051 91.3104 462.63 93 471 93C479.37 93 486.835 91.3104 493.509 87.706C500.183 84.2143 505.386 79.3709 509.231 73.0632C513.077 66.8681 515 59.8846 515 52C515 44.228 513.077 37.2445 509.231 30.9368C505.386 24.7418 500.183 19.8984 493.509 16.294C486.835 12.8022 479.37 11 471 11C462.63 11 455.051 12.8022 448.378 16.294C441.704 19.8984 436.501 24.7418 432.655 30.9368C428.81 37.2445 427 44.228 427 52C427 59.8846 428.81 66.8681 432.655 73.0632C436.501 79.3709 441.704 84.2143 448.378 87.706ZM481.859 71.7115C478.578 73.6264 474.959 74.5275 471 74.5275C466.928 74.5275 463.309 73.6264 460.141 71.7115C456.861 69.9093 454.26 67.206 452.45 63.8269C450.527 60.4478 449.622 56.5055 449.622 52C449.622 47.6071 450.527 43.6648 452.45 40.2857C454.26 36.9066 456.861 34.2033 460.141 32.2885C463.309 30.4863 466.928 29.4725 471 29.4725C474.959 29.4725 478.578 30.4863 481.859 32.2885C485.026 34.2033 487.627 36.9066 489.55 40.2857C491.36 43.6648 492.378 47.6071 492.378 52C492.378 56.5055 491.36 60.4478 489.55 63.8269C487.627 67.206 485.026 69.9093 481.859 71.7115Z" fill="white"/>
<path d="M549.869 95.9639H574.313V81.0959L549.869 49.9739V95.9639ZM609.341 7.76392V23.7659L633.785 53.2499V7.76392H609.341ZM609.341 54.7619L570.407 7.76392H549.869V19.4819L574.313 48.9659L613.247 95.9639H633.785V85.7579L609.341 54.6359V54.7619Z" fill="white"/>
<path d="M728.436 7.76392H658.506V27.0419H728.436V7.76392ZM728.436 41.9099H658.506V60.5579H728.436V41.9099ZM658.506 76.6859V95.9639H728.436V76.6859H658.506Z" fill="white"/>
</svg>
