<svg width="84" height="84" viewBox="0 0 84 84" fill="none" xmlns="http://www.w3.org/2000/svg">
<path d="M3.35938 15.1211V48.7211H21.8394V52.0811C21.8394 55.4542 20.8025 58.473 19.2209 60.5795C17.6459 62.6795 15.6181 63.8411 13.4394 63.8411H11.7594V75.6011H13.4394C26.4069 75.6011 36.9594 65.0486 36.9594 52.0811V15.1211H3.35938ZM47.0394 15.1211V48.7211H65.5194V52.0811C65.5194 55.4542 64.4825 58.473 62.9009 60.5795C61.3259 62.6795 59.2981 63.8411 57.1194 63.8411H55.4394V75.6011H57.1194C70.0869 75.6011 80.6394 65.0486 80.6394 52.0811V15.1211H47.0394ZM6.71937 18.4811H33.5994V52.0811C33.5994 62.6402 25.4422 71.0073 15.1194 71.8998V66.7548C17.7838 66.2364 20.2119 64.8583 21.9116 62.5877C23.9787 59.8314 25.1994 56.1302 25.1994 52.0811V45.3611H6.71937V18.4811ZM50.3994 18.4811H77.2794V52.0811C77.2794 62.6402 69.1222 71.0073 58.7994 71.8998V66.7548C61.4637 66.2364 63.8919 64.8583 65.5916 62.5877C67.6587 59.8314 68.8794 56.1302 68.8794 52.0811V45.3611H50.3994V18.4811Z" fill="#FF4B2B"/>
</svg>
