<svg width="151" height="57" viewBox="0 0 151 57" fill="none" xmlns="http://www.w3.org/2000/svg">
<path d="M31.0702 28.9046C31.0702 26.8237 32.3126 25.3741 34.2113 25.3741C36.11 25.3741 37.3523 26.8237 37.3523 28.9046C37.3523 30.9622 36.11 32.4351 34.2113 32.4351C32.3126 32.4351 31.0702 30.9622 31.0702 28.9046Z" fill="white" fill-opacity="0.5"/>
<path d="M47.1278 25.2806C45.3229 25.2806 44.104 26.6834 44.104 28.6007C44.104 30.5413 45.3463 31.9909 47.1278 31.9909C49.0968 31.9909 50.4095 30.5179 50.4095 28.6007C50.4095 26.7068 49.0968 25.2806 47.1278 25.2806Z" fill="white" fill-opacity="0.5"/>
<path d="M57.5911 28.9046C57.5911 26.8237 58.8335 25.3741 60.7322 25.3741C62.6309 25.3741 63.8732 26.8237 63.8732 28.9046C63.8732 30.9622 62.6309 32.4351 60.7322 32.4351C58.8335 32.4351 57.5911 30.9622 57.5911 28.9046Z" fill="white" fill-opacity="0.5"/>
<path d="M76.6933 28.928C76.6933 26.8471 77.9591 25.3975 79.9515 25.3975C81.944 25.3975 83.1394 26.8705 83.1394 28.928C83.1394 30.9855 81.944 32.4351 79.9515 32.4351C77.9591 32.4351 76.6933 31.0089 76.6933 28.928Z" fill="white" fill-opacity="0.5"/>
<path fill-rule="evenodd" clip-rule="evenodd" d="M75.5 53.3654C115.328 53.3654 147.615 42.0649 147.615 28.125C147.615 14.1851 115.328 2.88464 75.5 2.88464C35.6718 2.88464 3.38461 14.1851 3.38461 28.125C3.38461 42.0649 35.6718 53.3654 75.5 53.3654ZM26.4367 34.7031V17.3077H23.5769V34.7031H26.4367ZM28.187 28.9046C28.187 32.4585 30.578 34.9837 34.2113 34.9837C37.8446 34.9837 40.2355 32.4585 40.2355 28.9046C40.2355 25.3507 37.8446 22.8256 34.2113 22.8256C30.578 22.8256 28.187 25.3507 28.187 28.9046ZM46.6356 34.4693C43.3773 34.4693 41.1973 32.0377 41.1973 28.6708C41.1973 25.2806 43.4242 22.7788 46.7293 22.7788C48.4405 22.7788 49.8938 23.5037 50.597 24.7195L50.7611 23.1529H53.2927V34.1186C53.2927 37.9297 50.9018 40.3846 47.1513 40.3846C43.9633 40.3846 41.6427 38.4207 41.2677 35.4045H44.1509C44.3149 36.9243 45.5339 37.7894 47.3153 37.7894C49.3078 37.7894 50.5033 36.5268 50.5033 34.6329V32.669C49.7766 33.7912 48.3233 34.4693 46.6356 34.4693ZM54.7079 28.9046C54.7079 32.4585 57.0989 34.9837 60.7322 34.9837C64.3655 34.9837 66.7564 32.4585 66.7564 28.9046C66.7564 25.3507 64.3655 22.8256 60.7322 22.8256C57.0989 22.8256 54.7079 25.3507 54.7079 28.9046ZM71.5625 19.0847C71.5625 20.0433 70.789 20.7915 69.8513 20.7915C68.8903 20.7915 68.1636 20.0433 68.1636 19.0847C68.1636 18.1494 68.8903 17.4012 69.8513 17.4012C70.789 17.4012 71.5625 18.1494 71.5625 19.0847ZM71.2812 23.1529V34.7031H68.4215V23.1529H71.2812ZM73.7866 40.0573H76.5761V33.1132C77.3027 34.3056 78.8732 35.007 80.6079 35.007C84.0302 35.007 86.0695 32.3884 86.0226 28.7877C85.9523 25.1637 83.8661 22.8022 80.5844 22.8022C78.8264 22.8022 77.2324 23.5738 76.5292 24.9065L76.3651 23.1529H73.7866V40.0573ZM91.39 35.007C88.624 35.007 86.8425 33.534 86.7488 31.2427H89.3507C89.3507 32.2481 90.0773 32.8326 91.3431 32.8326C92.398 32.8326 93.2653 32.4118 93.2653 31.4999C93.2653 30.8452 92.7964 30.4945 92.0463 30.2841L90.0305 29.7697C87.8036 29.1852 86.9363 27.946 86.9363 26.4496C86.9363 24.2518 88.7881 22.8022 91.2728 22.8022C93.7809 22.8022 95.4921 24.2518 95.5859 26.5432H92.984C92.984 25.5378 92.2807 24.9299 91.2025 24.9299C90.1711 24.9299 89.5382 25.491 89.5382 26.286C89.5382 27.0342 90.1242 27.3381 90.9915 27.5719L93.0309 28.0629C94.9296 28.5305 95.9609 29.6528 95.9609 31.3129C95.9609 33.5574 94.1091 35.007 91.39 35.007ZM101.893 35.007C103.463 35.007 104.963 34.2822 105.643 33.2067L105.831 34.7031H108.503V23.1529H105.643V29.2086C105.643 31.2895 104.846 32.4585 102.971 32.4585C101.518 32.4585 100.51 31.7571 100.51 29.3723V23.1529H97.6499V30.3776C97.6499 33.1366 99.1501 35.007 101.893 35.007ZM113.887 28.0629V34.7031H111.027V23.1529H113.652L113.793 24.4623C114.473 23.4335 115.692 22.8022 117.051 22.8022C118.973 22.8022 120.239 23.6439 120.872 25C121.435 23.6439 122.818 22.8022 124.576 22.8022C127.389 22.8022 128.865 24.4857 128.865 27.1511V34.7031H126.099V27.8057C126.099 26.1691 125.209 25.304 123.826 25.304C122.466 25.304 121.388 26.1925 121.388 28.0863V34.7031H118.598V27.8057C118.598 26.1691 117.708 25.304 116.348 25.304C114.989 25.304 113.887 26.1925 113.887 28.0629Z" fill="white" fill-opacity="0.5"/>
</svg>
