<svg width="168" height="41" viewBox="0 0 168 41" fill="none" xmlns="http://www.w3.org/2000/svg">
<g clip-path="url(#clip0_18_8)">
<path d="M49.1307 28.7936H61.0827V25.1936H53.3787V11.6336H49.1307V28.7936Z" fill="white" fill-opacity="0.5"/>
<path d="M68.1639 26.3936C66.4599 26.3936 65.5719 24.9056 65.5719 22.6736C65.5719 20.4416 66.4599 18.9296 68.1639 18.9296C69.8679 18.9296 70.7799 20.4416 70.7799 22.6736C70.7799 24.9056 69.8679 26.3936 68.1639 26.3936ZM68.1879 29.1776C72.1479 29.1776 74.7399 26.3696 74.7399 22.6736C74.7399 18.9776 72.1479 16.1696 68.1879 16.1696C64.2519 16.1696 61.6119 18.9776 61.6119 22.6736C61.6119 26.3696 64.2519 29.1776 68.1879 29.1776Z" fill="white" fill-opacity="0.5"/>
<path d="M81.5943 33.0416C83.4183 33.0416 85.0263 32.6336 86.1063 31.6736C87.0903 30.7856 87.7383 29.4416 87.7383 27.5936V16.5056H83.9943V17.8256H83.9463C83.2263 16.7936 82.1223 16.1456 80.4903 16.1456C77.4423 16.1456 75.3303 18.6896 75.3303 22.2896C75.3303 26.0576 77.8983 28.1216 80.6583 28.1216C82.1463 28.1216 83.0823 27.5216 83.8023 26.7056H83.8983V27.9296C83.8983 29.4176 83.2023 30.2816 81.5463 30.2816C80.2503 30.2816 79.6023 29.7296 79.3863 29.0816H75.5943C75.9783 31.6496 78.2103 33.0416 81.5943 33.0416ZM81.5703 25.2176C80.1063 25.2176 79.1463 24.0176 79.1463 22.1696C79.1463 20.2976 80.1063 19.0976 81.5703 19.0976C83.2023 19.0976 84.0663 20.4896 84.0663 22.1456C84.0663 23.8736 83.2743 25.2176 81.5703 25.2176Z" fill="white" fill-opacity="0.5"/>
<path d="M95.4367 26.3936C93.7327 26.3936 92.8447 24.9056 92.8447 22.6736C92.8447 20.4416 93.7327 18.9296 95.4367 18.9296C97.1407 18.9296 98.0527 20.4416 98.0527 22.6736C98.0527 24.9056 97.1407 26.3936 95.4367 26.3936ZM95.4607 29.1776C99.4207 29.1776 102.013 26.3696 102.013 22.6736C102.013 18.9776 99.4207 16.1696 95.4607 16.1696C91.5247 16.1696 88.8847 18.9776 88.8847 22.6736C88.8847 26.3696 91.5247 29.1776 95.4607 29.1776Z" fill="white" fill-opacity="0.5"/>
<path d="M103.155 28.7936H107.067V16.5056H103.155V28.7936ZM103.155 14.8016H107.067V11.6336H103.155V14.8016Z" fill="white" fill-opacity="0.5"/>
<path d="M108.764 32.8496H112.676V27.5216H112.724C113.492 28.5536 114.62 29.1776 116.204 29.1776C119.42 29.1776 121.556 26.6336 121.556 22.6496C121.556 18.9536 119.564 16.1456 116.3 16.1456C114.62 16.1456 113.42 16.8896 112.58 17.9936H112.508V16.5056H108.764V32.8496ZM115.196 26.1536C113.516 26.1536 112.556 24.7856 112.556 22.7936C112.556 20.8016 113.42 19.2896 115.124 19.2896C116.804 19.2896 117.596 20.6816 117.596 22.7936C117.596 24.8816 116.684 26.1536 115.196 26.1536Z" fill="white" fill-opacity="0.5"/>
<path d="M127.926 29.1776C131.142 29.1776 133.518 27.7856 133.518 25.0976C133.518 21.9536 130.974 21.4016 128.814 21.0416C127.254 20.7536 125.862 20.6336 125.862 19.7696C125.862 19.0016 126.606 18.6416 127.566 18.6416C128.646 18.6416 129.39 18.9776 129.534 20.0816H133.134C132.942 17.6576 131.07 16.1456 127.59 16.1456C124.686 16.1456 122.286 17.4896 122.286 20.0816C122.286 22.9616 124.566 23.5376 126.702 23.8976C128.334 24.1856 129.822 24.3056 129.822 25.4096C129.822 26.2016 129.078 26.6336 127.902 26.6336C126.606 26.6336 125.79 26.0336 125.646 24.8096H121.95C122.07 27.5216 124.326 29.1776 127.926 29.1776Z" fill="white" fill-opacity="0.5"/>
<path d="M138.831 29.1536C140.535 29.1536 141.615 28.4816 142.503 27.2816H142.575V28.7936H146.319V16.5056H142.407V23.3696C142.407 24.8336 141.591 25.8416 140.247 25.8416C138.999 25.8416 138.399 25.0976 138.399 23.7536V16.5056H134.511V24.5696C134.511 27.3056 135.999 29.1536 138.831 29.1536Z" fill="white" fill-opacity="0.5"/>
<path d="M148.021 28.7936H151.933V21.9056C151.933 20.4416 152.653 19.4096 153.877 19.4096C155.053 19.4096 155.605 20.1776 155.605 21.4976V28.7936H159.517V21.9056C159.517 20.4416 160.213 19.4096 161.461 19.4096C162.637 19.4096 163.189 20.1776 163.189 21.4976V28.7936H167.101V20.8016C167.101 18.0416 165.709 16.1456 162.925 16.1456C161.341 16.1456 160.021 16.8176 159.061 18.3056H159.013C158.389 16.9856 157.165 16.1456 155.557 16.1456C153.781 16.1456 152.605 16.9856 151.837 18.2576H151.765V16.5056H148.021V28.7936Z" fill="white" fill-opacity="0.5"/>
<path fill-rule="evenodd" clip-rule="evenodd" d="M9.15417 3.89151C7.72351 4.89187 6.42981 6.07462 5.30676 7.40604C9.89606 6.97997 15.7266 7.67569 22.4958 11.0603C29.7244 14.6745 35.5452 14.7967 39.5962 14.0153C39.2286 12.9024 38.7658 11.8328 38.2177 10.816C33.5804 11.3051 27.6354 10.6577 20.707 7.19362C16.3074 4.99382 12.4292 4.08765 9.15417 3.89151ZM35.5088 6.96029C31.8467 2.86864 26.5248 0.29364 20.6014 0.29364C18.8619 0.29364 17.1741 0.515747 15.5651 0.93312C17.7443 1.52773 20.0593 2.39763 22.4958 3.61591C27.5684 6.15217 31.9478 6.9688 35.5088 6.96029ZM40.4623 17.9217C35.5683 18.8881 28.8102 18.6896 20.707 14.638C13.1314 10.8502 7.10187 10.8979 3.03534 11.8016C2.82544 11.8482 2.62048 11.8972 2.42047 11.9482C1.88806 13.1061 1.46307 14.3237 1.15814 15.5881C1.48383 15.5011 1.82037 15.4184 2.1676 15.3412C7.10101 14.2449 14.0715 14.2925 22.4958 18.5047C30.0715 22.2925 36.101 22.2448 40.1676 21.3411C40.3069 21.3102 40.4442 21.2782 40.5792 21.2452C40.594 20.9299 40.6014 20.6126 40.6014 20.2936C40.6014 19.4911 40.5542 18.6996 40.4623 17.9217ZM39.9262 25.4659C35.0797 26.3132 28.5184 25.988 20.707 22.0824C13.1314 18.2946 7.10187 18.3423 3.03534 19.246C2.13269 19.4465 1.32068 19.6908 0.60437 19.9487C0.602417 20.0634 0.60144 20.1784 0.60144 20.2936C0.60144 31.3393 9.55573 40.2936 20.6014 40.2936C29.8585 40.2936 37.6467 34.0045 39.9262 25.4659Z" fill="white" fill-opacity="0.5"/>
</g>
<defs>
<clipPath id="clip0_18_8">
<rect width="167" height="41" fill="white" transform="translate(0.5)"/>
</clipPath>
</defs>
</svg>
